<svg version="1.2" xmlns="http://www.w3.org/2000/svg" viewBox="0 0 53 57" width="53" height="57"><defs><clipPath clipPathUnits="userSpaceOnUse" id="cp1"><path d="m-471-52h1920v8874h-1920z" /></clipPath></defs><style>.s0{fill:#ffffff}</style><g clip-path="url(#cp1)"><path fill-rule="evenodd" class="s0" d="m28 0.9c1.2 0.5 21.8 11 21.8 11.2c0.1 0.2 0.2 0.2-5.7 3.3l-5.6 3l-0.8-0.8c-6.5-6-15.9-6-22.2 0.1l-0.5 0.5l-5.7-3.1c-4.4-2.4-5.8-3.2-5.8-3.4c0-0.1 21.4-10.8 22.2-11c0.5-0.1 1.7 0 2.3 0.2zm-26.6 14.1c0.1 0 11.3 6.1 11.3 6.2c0.1 0-0.2 0.5-0.4 1.2c-4.2 9.4 1.4 20.3 11.5 22.1l1 0.2v5.8v5.9h-0.3c-0.1 0-4.6-2.2-11.2-5.5c-11.8-5.9-11.5-5.7-12-6.8l-0.3-0.6v-14.1c0-10.7 0-14.2 0.1-14.3c0.1-0.1 0.2-0.2 0.3-0.1zm50.7 0.5h0.2v14c0 15.7 0.1 14.5-0.8 15.5c-0.5 0.5-22.1 11.4-22.7 11.4h-0.3v-11.7l1-0.2c10.2-1.9 16-13.3 11.4-22.4c-0.1-0.4-0.3-0.7-0.2-0.7c0 0 2.6-1.4 5.6-3c3.5-1.8 5.6-2.9 5.8-2.9zm-21.6 2c1.9 0.7 4.7 2.5 4.4 2.8c-0.3 0.2-8 4.2-8.2 4.2c-0.3 0-8.3-4.3-8.3-4.5c0.3-0.7 3.8-2.5 5.8-2.9c1.8-0.4 4.6-0.2 6.3 0.4zm-14.4 5.6c0.2 0 8.5 4.6 8.6 4.8c0.1 0.1 0.1 1.6 0.1 6.6v6.4l-0.5-0.1c-1.4-0.2-3.6-1.2-5-2.3c-4.5-3.3-6-9.5-3.6-14.7c0.2-0.4 0.3-0.7 0.4-0.7zm21.5 0.6c2.6 5.2 0.7 12.2-4.2 15.4c-1.3 0.8-3.8 1.8-4.6 1.8h-0.3v-6.5c0-4.9 0.1-6.5 0.2-6.6c0 0 2-1.1 4.3-2.3c4.9-2.6 4.3-2.4 4.6-1.8z" /></g></svg>